<?xml version="1.0" standalone="no"?><!DOCTYPE svg PUBLIC "-//W3C//DTD SVG 1.1//EN" "http://www.w3.org/Graphics/SVG/1.1/DTD/svg11.dtd"><svg t="1712987961033" class="icon" viewBox="0 0 1024 1024" version="1.1" xmlns="http://www.w3.org/2000/svg" p-id="19328" xmlns:xlink="http://www.w3.org/1999/xlink" width="200" height="200"><path d="M179.2 179.2h665.6V409.6h-665.6z" fill="#DAE0E6" p-id="19329"></path><path d="M844.8 588.8a25.6 25.6 0 0 1 25.6 25.6v230.4a25.6 25.6 0 0 1-25.6 25.6h-665.6a25.6 25.6 0 0 1-25.6-25.6V614.4a25.6 25.6 0 0 1 25.6-25.6z m-25.6 51.2H204.8V819.2h614.4v-179.2z m-563.2-153.6a25.6 25.6 0 0 1 0 51.2H153.6a25.6 25.6 0 0 1 0-51.2z m204.8 0a25.6 25.6 0 0 1 0 51.2H358.4a25.6 25.6 0 0 1 0-51.2z m204.8 0a25.6 25.6 0 1 1 0 51.2h-102.4a25.6 25.6 0 0 1 0-51.2z m204.8 0a25.6 25.6 0 1 1 0 51.2h-102.4a25.6 25.6 0 1 1 0-51.2zM844.8 153.6a25.6 25.6 0 0 1 25.6 25.6V409.6a25.6 25.6 0 0 1-25.6 25.6h-665.6A25.6 25.6 0 0 1 153.6 409.6V179.2a25.6 25.6 0 0 1 25.6-25.6zM819.2 204.8H204.8v179.2h614.4V204.8z" fill="#80868C" p-id="19330"></path></svg>